# xmcd CD database file
#
# Track frame offsets:
#	150
#	13840
#	28670
#	43337
#	57655
#	72775
#	88585
#	103290
#	115525
#	128470
#	141405
#	159690
#	176715
#	197375
#	211612
#	225557
#	243135
#	257215
#	271655
#	284977
#
# Disc length: 4020 seconds
#
# Revision: 0
# Processed by: cddbd v1.5.1PL0 Copyright (c) Steve Scherf et al.
# Submitted via: CDex 1.51
#
DISCID=230fb214
DTITLE=KEITH NICHOLS and THE COTTON CLUB ORCHESTRA - SYNCOPATED JAMBOREE
DYEAR=1991
DGENRE=Jazz
TTITLE0=Kansas City Kitty
TTITLE1=Syncopated Jamboree
TTITLE2=Glorianna
TTITLE3=Baby's Blue
TTITLE4=Blazin'
TTITLE5=Little Mary Brown
TTITLE6=She's A Great, Great Girl
TTITLE7=Lovable
TTITLE8=Zulu Wail
TTITLE9=Sing Song Girl
TTITLE10=Sunshine
TTITLE11='Deed I Do
TTITLE12=Cryin' For The Carolines
TTITLE13=Remarkable Girl
TTITLE14=You Can't Get To Heaven That Way
TTITLE15=You Don't Like It-Not Much
TTITLE16=Bessie Couldn't Help It
TTITLE17=My Suppressed Desire
TTITLE18=Five Penniew
TTITLE19=My Sunday Girl
EXTD=YEAR: 1991
EXTT0=
EXTT1=
EXTT2=
EXTT3=
EXTT4=
EXTT5=
EXTT6=
EXTT7=
EXTT8=
EXTT9=
EXTT10=
EXTT11=
EXTT12=
EXTT13=
EXTT14=
EXTT15=
EXTT16=
EXTT17=
EXTT18=
EXTT19=
PLAYORDER=
